<mxfile host="app.diagrams.net" agent="Mozilla/5.0 (Macintosh; Intel Mac OS X 10_15_7) AppleWebKit/605.1.15 (KHTML, like Gecko) Version/18.1.1 Safari/605.1.15" version="24.9.3">
  <diagram name="Page-1" id="e7e014a7-5840-1c2e-5031-d8a46d1fe8dd">
    <mxGraphModel dx="954" dy="675" grid="1" gridSize="10" guides="1" tooltips="1" connect="1" arrows="1" fold="1" page="1" pageScale="1" pageWidth="1169" pageHeight="826" background="none" math="0" shadow="0">
      <root>
        <mxCell id="0" />
        <mxCell id="1" parent="0" />
        <mxCell id="3" value="LLM" style="swimlane;whiteSpace=wrap;movable=1;resizable=1;rotatable=1;deletable=1;editable=1;locked=0;connectable=1;" parent="1" vertex="1">
          <mxGeometry x="444.5" y="128" width="280" height="570" as="geometry" />
        </mxCell>
        <mxCell id="8uKwGkPH9DGGV1LOmnHB-71" style="edgeStyle=orthogonalEdgeStyle;rounded=0;orthogonalLoop=1;jettySize=auto;html=1;exitX=0.5;exitY=1;exitDx=0;exitDy=0;entryX=0.5;entryY=0;entryDx=0;entryDy=0;" edge="1" parent="3" source="8uKwGkPH9DGGV1LOmnHB-44" target="8uKwGkPH9DGGV1LOmnHB-68">
          <mxGeometry relative="1" as="geometry" />
        </mxCell>
        <mxCell id="8uKwGkPH9DGGV1LOmnHB-44" value="Intent Recognition" style="html=1;whiteSpace=wrap;movable=1;resizable=1;rotatable=1;deletable=1;editable=1;locked=0;connectable=1;" vertex="1" parent="3">
          <mxGeometry x="35.5" y="235" width="110" height="50" as="geometry" />
        </mxCell>
        <mxCell id="2" value="Advisor" style="swimlane;whiteSpace=wrap;movable=1;resizable=1;rotatable=1;deletable=1;editable=1;locked=0;connectable=1;" parent="3" vertex="1">
          <mxGeometry x="-280" width="280" height="570" as="geometry" />
        </mxCell>
        <mxCell id="8uKwGkPH9DGGV1LOmnHB-41" value="" style="ellipse;html=1;shape=startState;fillColor=#000000;strokeColor=#ff0000;movable=1;resizable=1;rotatable=1;deletable=1;editable=1;locked=0;connectable=1;" vertex="1" parent="2">
          <mxGeometry x="125" y="42" width="30" height="30" as="geometry" />
        </mxCell>
        <mxCell id="8uKwGkPH9DGGV1LOmnHB-42" value="" style="edgeStyle=orthogonalEdgeStyle;html=1;verticalAlign=bottom;endArrow=open;endSize=8;strokeColor=#ff0000;rounded=0;movable=1;resizable=1;rotatable=1;deletable=1;editable=1;locked=0;connectable=1;" edge="1" source="8uKwGkPH9DGGV1LOmnHB-41" parent="2">
          <mxGeometry relative="1" as="geometry">
            <mxPoint x="140" y="132" as="targetPoint" />
          </mxGeometry>
        </mxCell>
        <mxCell id="8uKwGkPH9DGGV1LOmnHB-43" value="Input Message" style="html=1;whiteSpace=wrap;movable=1;resizable=1;rotatable=1;deletable=1;editable=1;locked=0;connectable=1;" vertex="1" parent="2">
          <mxGeometry x="85" y="92" width="110" height="50" as="geometry" />
        </mxCell>
        <mxCell id="8uKwGkPH9DGGV1LOmnHB-48" value="" style="line;strokeWidth=2;fillColor=none;align=left;verticalAlign=middle;spacingTop=-1;spacingLeft=3;spacingRight=3;rotatable=0;labelPosition=right;points=[];portConstraint=eastwest;strokeColor=inherit;" vertex="1" parent="2">
          <mxGeometry x="85" y="152" width="110" height="2" as="geometry" />
        </mxCell>
        <mxCell id="8uKwGkPH9DGGV1LOmnHB-50" style="edgeStyle=orthogonalEdgeStyle;rounded=0;orthogonalLoop=1;jettySize=auto;html=1;exitX=0.5;exitY=1;exitDx=0;exitDy=0;entryX=0.5;entryY=0.875;entryDx=0;entryDy=0;entryPerimeter=0;" edge="1" parent="2" source="8uKwGkPH9DGGV1LOmnHB-43" target="8uKwGkPH9DGGV1LOmnHB-48">
          <mxGeometry relative="1" as="geometry" />
        </mxCell>
        <mxCell id="8uKwGkPH9DGGV1LOmnHB-78" value="" style="ellipse;html=1;shape=endState;fillColor=#000000;strokeColor=#ff0000;" vertex="1" parent="2">
          <mxGeometry x="125" y="512" width="30" height="30" as="geometry" />
        </mxCell>
        <mxCell id="8uKwGkPH9DGGV1LOmnHB-86" value="Input Student ID" style="html=1;whiteSpace=wrap;" vertex="1" parent="2">
          <mxGeometry x="55.5" y="402" width="110" height="50" as="geometry" />
        </mxCell>
        <mxCell id="8uKwGkPH9DGGV1LOmnHB-92" value="" style="line;strokeWidth=2;fillColor=none;align=left;verticalAlign=middle;spacingTop=-1;spacingLeft=3;spacingRight=3;rotatable=0;labelPosition=right;points=[];portConstraint=eastwest;strokeColor=inherit;" vertex="1" parent="2">
          <mxGeometry x="55.5" y="382" width="110" height="2" as="geometry" />
        </mxCell>
        <mxCell id="8uKwGkPH9DGGV1LOmnHB-93" style="edgeStyle=orthogonalEdgeStyle;rounded=0;orthogonalLoop=1;jettySize=auto;html=1;entryX=0.5;entryY=1.5;entryDx=0;entryDy=0;entryPerimeter=0;" edge="1" parent="2" source="8uKwGkPH9DGGV1LOmnHB-86" target="8uKwGkPH9DGGV1LOmnHB-92">
          <mxGeometry relative="1" as="geometry" />
        </mxCell>
        <mxCell id="8uKwGkPH9DGGV1LOmnHB-99" value="Assign Attributes" style="html=1;whiteSpace=wrap;" vertex="1" parent="2">
          <mxGeometry x="15" y="232" width="110" height="50" as="geometry" />
        </mxCell>
        <mxCell id="8uKwGkPH9DGGV1LOmnHB-51" style="edgeStyle=orthogonalEdgeStyle;rounded=0;orthogonalLoop=1;jettySize=auto;html=1;entryX=0;entryY=0.5;entryDx=0;entryDy=0;exitX=0.591;exitY=1.5;exitDx=0;exitDy=0;exitPerimeter=0;" edge="1" parent="3" source="8uKwGkPH9DGGV1LOmnHB-48" target="8uKwGkPH9DGGV1LOmnHB-44">
          <mxGeometry relative="1" as="geometry">
            <Array as="points">
              <mxPoint x="-130" y="242" />
              <mxPoint x="16" y="242" />
              <mxPoint x="16" y="260" />
            </Array>
          </mxGeometry>
        </mxCell>
        <mxCell id="8uKwGkPH9DGGV1LOmnHB-53" value="Information Extraction" style="html=1;whiteSpace=wrap;" vertex="1" parent="3">
          <mxGeometry x="75.5" y="62" width="110" height="50" as="geometry" />
        </mxCell>
        <mxCell id="8uKwGkPH9DGGV1LOmnHB-52" style="edgeStyle=orthogonalEdgeStyle;rounded=0;orthogonalLoop=1;jettySize=auto;html=1;exitX=0.791;exitY=1.5;exitDx=0;exitDy=0;exitPerimeter=0;entryX=0;entryY=0.5;entryDx=0;entryDy=0;" edge="1" parent="3" source="8uKwGkPH9DGGV1LOmnHB-48" target="8uKwGkPH9DGGV1LOmnHB-53">
          <mxGeometry relative="1" as="geometry">
            <mxPoint x="75.5" y="92" as="targetPoint" />
          </mxGeometry>
        </mxCell>
        <mxCell id="8uKwGkPH9DGGV1LOmnHB-68" value="Student View Request?" style="rhombus;whiteSpace=wrap;html=1;fontColor=#000000;fillColor=#ffffc0;strokeColor=#ff0000;" vertex="1" parent="3">
          <mxGeometry x="45.75" y="322" width="89.5" height="58" as="geometry" />
        </mxCell>
        <mxCell id="8uKwGkPH9DGGV1LOmnHB-69" value="Yes" style="edgeStyle=orthogonalEdgeStyle;html=1;align=left;verticalAlign=bottom;endArrow=open;endSize=8;strokeColor=#ff0000;rounded=0;entryX=0;entryY=0.5;entryDx=0;entryDy=0;" edge="1" source="8uKwGkPH9DGGV1LOmnHB-68" parent="3" target="8uKwGkPH9DGGV1LOmnHB-72">
          <mxGeometry x="-1" relative="1" as="geometry">
            <mxPoint x="195.5" y="351" as="targetPoint" />
          </mxGeometry>
        </mxCell>
        <mxCell id="8uKwGkPH9DGGV1LOmnHB-70" value="No" style="edgeStyle=orthogonalEdgeStyle;html=1;align=left;verticalAlign=top;endArrow=open;endSize=8;strokeColor=#ff0000;rounded=0;entryX=0.5;entryY=0;entryDx=0;entryDy=0;" edge="1" source="8uKwGkPH9DGGV1LOmnHB-68" parent="3" target="8uKwGkPH9DGGV1LOmnHB-82">
          <mxGeometry x="-1" relative="1" as="geometry">
            <mxPoint x="90.5" y="422" as="targetPoint" />
          </mxGeometry>
        </mxCell>
        <mxCell id="8uKwGkPH9DGGV1LOmnHB-72" value="Student ID Available" style="rhombus;whiteSpace=wrap;html=1;fontColor=#000000;fillColor=#ffffc0;strokeColor=#ff0000;" vertex="1" parent="3">
          <mxGeometry x="165.5" y="322" width="105.5" height="59" as="geometry" />
        </mxCell>
        <mxCell id="8uKwGkPH9DGGV1LOmnHB-79" style="edgeStyle=orthogonalEdgeStyle;rounded=0;orthogonalLoop=1;jettySize=auto;html=1;exitX=0;exitY=0.5;exitDx=0;exitDy=0;entryX=1;entryY=0.5;entryDx=0;entryDy=0;" edge="1" parent="3" source="8uKwGkPH9DGGV1LOmnHB-77" target="8uKwGkPH9DGGV1LOmnHB-78">
          <mxGeometry relative="1" as="geometry" />
        </mxCell>
        <mxCell id="8uKwGkPH9DGGV1LOmnHB-81" value="Response" style="edgeLabel;html=1;align=center;verticalAlign=middle;resizable=0;points=[];" vertex="1" connectable="0" parent="8uKwGkPH9DGGV1LOmnHB-79">
          <mxGeometry x="0.2968" y="1" relative="1" as="geometry">
            <mxPoint as="offset" />
          </mxGeometry>
        </mxCell>
        <mxCell id="8uKwGkPH9DGGV1LOmnHB-77" value="Generate report" style="html=1;whiteSpace=wrap;" vertex="1" parent="3">
          <mxGeometry x="161" y="502" width="110" height="50" as="geometry" />
        </mxCell>
        <mxCell id="8uKwGkPH9DGGV1LOmnHB-83" style="edgeStyle=orthogonalEdgeStyle;rounded=0;orthogonalLoop=1;jettySize=auto;html=1;exitX=0;exitY=0.5;exitDx=0;exitDy=0;entryX=1;entryY=0;entryDx=0;entryDy=0;" edge="1" parent="3" source="8uKwGkPH9DGGV1LOmnHB-82" target="8uKwGkPH9DGGV1LOmnHB-78">
          <mxGeometry relative="1" as="geometry">
            <Array as="points">
              <mxPoint x="36" y="472" />
              <mxPoint x="-129" y="472" />
            </Array>
          </mxGeometry>
        </mxCell>
        <mxCell id="8uKwGkPH9DGGV1LOmnHB-84" value="Response" style="edgeLabel;html=1;align=center;verticalAlign=middle;resizable=0;points=[];" vertex="1" connectable="0" parent="8uKwGkPH9DGGV1LOmnHB-83">
          <mxGeometry x="0.1217" y="-9" relative="1" as="geometry">
            <mxPoint x="-18" y="5" as="offset" />
          </mxGeometry>
        </mxCell>
        <mxCell id="8uKwGkPH9DGGV1LOmnHB-82" value="Generate RÃ©ponse" style="html=1;whiteSpace=wrap;" vertex="1" parent="3">
          <mxGeometry x="35.5" y="422" width="110" height="50" as="geometry" />
        </mxCell>
        <mxCell id="8uKwGkPH9DGGV1LOmnHB-85" style="edgeStyle=orthogonalEdgeStyle;rounded=0;orthogonalLoop=1;jettySize=auto;html=1;exitX=0.5;exitY=0;exitDx=0;exitDy=0;strokeColor=#FF0000;entryX=1;entryY=0.5;entryDx=0;entryDy=0;" edge="1" parent="3" source="8uKwGkPH9DGGV1LOmnHB-72" target="8uKwGkPH9DGGV1LOmnHB-86">
          <mxGeometry relative="1" as="geometry">
            <mxPoint x="-104.5" y="312" as="targetPoint" />
          </mxGeometry>
        </mxCell>
        <mxCell id="8uKwGkPH9DGGV1LOmnHB-97" value="No" style="edgeLabel;html=1;align=center;verticalAlign=middle;resizable=0;points=[];" vertex="1" connectable="0" parent="8uKwGkPH9DGGV1LOmnHB-85">
          <mxGeometry x="-0.8501" y="10" relative="1" as="geometry">
            <mxPoint as="offset" />
          </mxGeometry>
        </mxCell>
        <mxCell id="8uKwGkPH9DGGV1LOmnHB-95" style="edgeStyle=orthogonalEdgeStyle;rounded=0;orthogonalLoop=1;jettySize=auto;html=1;entryX=0.5;entryY=1;entryDx=0;entryDy=0;exitX=0.818;exitY=-0.5;exitDx=0;exitDy=0;exitPerimeter=0;" edge="1" parent="3" source="8uKwGkPH9DGGV1LOmnHB-92" target="8uKwGkPH9DGGV1LOmnHB-53">
          <mxGeometry relative="1" as="geometry">
            <Array as="points">
              <mxPoint x="-134" y="292" />
              <mxPoint x="166" y="292" />
              <mxPoint x="166" y="132" />
              <mxPoint x="131" y="132" />
            </Array>
          </mxGeometry>
        </mxCell>
        <mxCell id="8uKwGkPH9DGGV1LOmnHB-98" style="edgeStyle=orthogonalEdgeStyle;rounded=0;orthogonalLoop=1;jettySize=auto;html=1;exitX=0;exitY=1;exitDx=0;exitDy=0;" edge="1" parent="3" source="8uKwGkPH9DGGV1LOmnHB-53" target="8uKwGkPH9DGGV1LOmnHB-99">
          <mxGeometry relative="1" as="geometry">
            <mxPoint x="-204.5" y="222" as="targetPoint" />
            <Array as="points">
              <mxPoint x="76" y="192" />
              <mxPoint x="-210" y="192" />
            </Array>
          </mxGeometry>
        </mxCell>
        <mxCell id="8uKwGkPH9DGGV1LOmnHB-96" style="edgeStyle=orthogonalEdgeStyle;rounded=0;orthogonalLoop=1;jettySize=auto;html=1;entryX=0;entryY=1;entryDx=0;entryDy=0;exitX=0.727;exitY=0;exitDx=0;exitDy=0;exitPerimeter=0;" edge="1" parent="3" source="8uKwGkPH9DGGV1LOmnHB-92" target="8uKwGkPH9DGGV1LOmnHB-72">
          <mxGeometry relative="1" as="geometry">
            <Array as="points">
              <mxPoint x="-144" y="375" />
              <mxPoint x="46" y="375" />
              <mxPoint x="46" y="412" />
              <mxPoint x="176" y="412" />
              <mxPoint x="176" y="366" />
            </Array>
          </mxGeometry>
        </mxCell>
        <mxCell id="4" value="Database" style="swimlane;whiteSpace=wrap;movable=1;resizable=1;rotatable=1;deletable=1;editable=1;locked=0;connectable=1;" parent="1" vertex="1">
          <mxGeometry x="724.5" y="128" width="280" height="570" as="geometry" />
        </mxCell>
        <mxCell id="8uKwGkPH9DGGV1LOmnHB-75" value="Retrieve Student Information" style="html=1;whiteSpace=wrap;" vertex="1" parent="4">
          <mxGeometry x="75.5" y="326.5" width="110" height="50" as="geometry" />
        </mxCell>
        <mxCell id="8uKwGkPH9DGGV1LOmnHB-73" value="Yes" style="edgeStyle=orthogonalEdgeStyle;html=1;align=left;verticalAlign=bottom;endArrow=open;endSize=8;strokeColor=#ff0000;rounded=0;entryX=0;entryY=0.5;entryDx=0;entryDy=0;" edge="1" source="8uKwGkPH9DGGV1LOmnHB-72" parent="1" target="8uKwGkPH9DGGV1LOmnHB-75">
          <mxGeometry x="-1" relative="1" as="geometry">
            <mxPoint x="770" y="480" as="targetPoint" />
          </mxGeometry>
        </mxCell>
        <mxCell id="8uKwGkPH9DGGV1LOmnHB-76" style="edgeStyle=orthogonalEdgeStyle;rounded=0;orthogonalLoop=1;jettySize=auto;html=1;exitX=0.5;exitY=1;exitDx=0;exitDy=0;entryX=1;entryY=0.5;entryDx=0;entryDy=0;" edge="1" parent="1" source="8uKwGkPH9DGGV1LOmnHB-75" target="8uKwGkPH9DGGV1LOmnHB-77">
          <mxGeometry relative="1" as="geometry">
            <mxPoint x="610" y="650" as="targetPoint" />
          </mxGeometry>
        </mxCell>
        <mxCell id="8uKwGkPH9DGGV1LOmnHB-103" style="edgeStyle=orthogonalEdgeStyle;rounded=0;orthogonalLoop=1;jettySize=auto;html=1;exitX=0.5;exitY=1;exitDx=0;exitDy=0;entryX=0.5;entryY=1;entryDx=0;entryDy=0;" edge="1" parent="1" source="8uKwGkPH9DGGV1LOmnHB-102" target="8uKwGkPH9DGGV1LOmnHB-78">
          <mxGeometry relative="1" as="geometry">
            <Array as="points">
              <mxPoint x="930" y="365" />
              <mxPoint x="930" y="690" />
              <mxPoint x="305" y="690" />
            </Array>
          </mxGeometry>
        </mxCell>
        <mxCell id="8uKwGkPH9DGGV1LOmnHB-102" value="Store Advisor Attributes" style="html=1;whiteSpace=wrap;" vertex="1" parent="1">
          <mxGeometry x="825" y="315" width="110" height="50" as="geometry" />
        </mxCell>
        <mxCell id="8uKwGkPH9DGGV1LOmnHB-101" style="edgeStyle=orthogonalEdgeStyle;rounded=0;orthogonalLoop=1;jettySize=auto;html=1;exitX=1;exitY=0.5;exitDx=0;exitDy=0;" edge="1" parent="1" source="8uKwGkPH9DGGV1LOmnHB-99" target="8uKwGkPH9DGGV1LOmnHB-102">
          <mxGeometry relative="1" as="geometry">
            <mxPoint x="880" y="340" as="targetPoint" />
            <Array as="points">
              <mxPoint x="290" y="350" />
              <mxPoint x="557" y="350" />
              <mxPoint x="557" y="340" />
            </Array>
          </mxGeometry>
        </mxCell>
      </root>
    </mxGraphModel>
  </diagram>
</mxfile>
